<svg width="256" height="256" viewBox="0 0 256 256" fill="none" xmlns="http://www.w3.org/2000/svg">
  <path d="M216 64L128 32L40 64V192L128 224L216 192V64Z" fill="#E6E6E6" stroke="#A3A3A3" stroke-width="8" stroke-linejoin="round"/>
  <path d="M128 32V224" stroke="#A3A3A3" stroke-width="8" stroke-linecap="round" stroke-linejoin="round"/>
  <path d="M40 64L128 96L216 64" stroke="#A3A3A3" stroke-width="8" stroke-linecap="round" stroke-linejoin="round"/>
  <path d="M88 48L88 80" stroke="#A3A3A3" stroke-width="8" stroke-linecap="round" stroke-linejoin="round"/>
  <path d="M168 48L168 80" stroke="#A3A3A3" stroke-width="8" stroke-linecap="round" stroke-linejoin="round"/>
  <path d="M88 160L88 192" stroke="#A3A3A3" stroke-width="8" stroke-linecap="round" stroke-linejoin="round"/>
  <path d="M168 160L168 192" stroke="#A3A3A3" stroke-width="8" stroke-linecap="round" stroke-linejoin="round"/>
  <path d="M128 136C141.255 136 152 125.255 152 112C152 98.7452 141.255 88 128 88C114.745 88 104 98.7452 104 112C104 125.255 114.745 136 128 136Z" fill="white" stroke="#A3A3A3" stroke-width="8"/>
  <path d="M128 112L128 104" stroke="#A3A3A3" stroke-width="8" stroke-linecap="round"/>
  <path d="M128 120L128 120.01" stroke="#A3A3A3" stroke-width="8" stroke-linecap="round"/>
</svg>